<?xml version="1.0" encoding="UTF-8" standalone="no"?>
<svg
   id="SWITCH_ELECTRIC_LOGO"
   data-name="SWITCH ELECTRIC LOGO"
   width="906.39398"
   height="157.10507"
   viewBox="0 0 906.39398 157.10507"
   version="1.1"
   sodipodi:docname="Switch Electric Icon.svg"
   xml:space="preserve"
   inkscape:version="1.2.1 (9c6d41e410, 2022-07-14, custom)"
   xmlns:inkscape="http://www.inkscape.org/namespaces/inkscape"
   xmlns:sodipodi="http://sodipodi.sourceforge.net/DTD/sodipodi-0.dtd"
   xmlns="http://www.w3.org/2000/svg"
   xmlns:svg="http://www.w3.org/2000/svg"><sodipodi:namedview
     id="namedview550"
     pagecolor="#505050"
     bordercolor="#eeeeee"
     borderopacity="1"
     inkscape:showpageshadow="0"
     inkscape:pageopacity="0"
     inkscape:pagecheckerboard="0"
     inkscape:deskcolor="#505050"
     showgrid="false"
     inkscape:zoom="0.26124924"
     inkscape:cx="612.44198"
     inkscape:cy="76.555247"
     inkscape:window-width="1853"
     inkscape:window-height="1078"
     inkscape:window-x="0"
     inkscape:window-y="0"
     inkscape:window-maximized="1"
     inkscape:current-layer="SWITCH_ELECTRIC_LOGO" /><defs
     id="defs545"><style
       id="style543">
      .cls-1 {
        fill: #fff;
        fill-rule: evenodd;
      }
    </style></defs><path
     id="CLOSED_SWITCH"
     data-name="CLOSED SWITCH"
     class="cls-1"
     d="M 487.021,58.648067 393.564,110.64107 A 60.9,60.9 0 0 1 302.798,86.760067 C 188.451,100.77707 85.264,125.12107 0.13,157.10507 L 0,118.62907 C 84.109,87.038067 185.832,62.908067 298.521,48.815067 a 60.866,60.866 0 0 1 120.395,12.333 c 0,0.766 -0.024,1.525 -0.05,2.284 m 0,0 93.316,-51.913 a 60.89,60.89 0 0 1 95.1,36.259 c 112.782,13.33 214.663,36.77 298.982,67.797003 l 0.13,38.473 c -85.35,-31.409 -188.7,-55.057003 -303.139,-68.300003 a 60.872,60.872 0 0 1 -116.284,-24.832 c 0,-0.759 0.025,-1.511 0.05,-2.263 m -128.85,34.285 a 31.605,31.605 0 0 0 11.936,-2.383 l 6.4,-3.561 a 31.642,31.642 0 1 0 -18.336,5.944 m 171.1,-57.788 a 31.693,31.693 0 1 0 5.446,-3.172" /></svg>
