<svg xmlns="http://www.w3.org/2000/svg" width="711.624" height="298.281" viewBox="0 0 711.624 298.281">
  <defs>
    <style>
      .cls-1 {
        fill: #fff;
        fill-rule: evenodd;
      }
    </style>
  </defs>
  <path id="Ellipse_2_copy" data-name="Ellipse 2 copy" class="cls-1" d="M895.259,541.459c-1.581,60.874-2.371,89.335-47.434,82.22-0.077-.013-0.147-0.034-0.223-0.047a148.66,148.66,0,0,1-264.879-38.579l-44.8,23.8v-0.336l-123.33,67.832,0.2-1.183a148.632,148.632,0,0,1-183.429-52.614c-0.062.01-.119,0.028-0.182,0.038-45.063,7.115-45.853-21.346-47.434-82.22-1.308-50.335,23.312-54.181,31.883-54A148.652,148.652,0,0,1,496.277,494.6l44.8-23.8v0.336l123.33-67.832-0.2,1.183A148.623,148.623,0,0,1,863.4,487.453C872,487.286,896.565,491.175,895.259,541.459ZM862.685,591.57q-16.474-2.084-33.1-4.025A118.019,118.019,0,0,1,722.476,656.73c-65.176.219-118.189-52.317-118.408-117.343,0-1.472.048-2.93,0.1-4.388L422.928,635.823A118.11,118.11,0,0,1,246.9,589.508q-13.3,1.632-26.484,3.37a327.339,327.339,0,0,1-4.278-52.506c0-7.248.322-14.416,0.788-21.545,7.238-.958,14.386-2,21.675-2.906A117.975,117.975,0,0,1,353.68,422.488c65.176-.22,118.188,52.317,118.408,117.344,0,1.485-.048,2.957-0.1,4.429l180.97-100.676A118.083,118.083,0,0,1,837.385,513.9q14.287,1.689,28.447,3.5c0.531,7.6.9,15.24,0.9,22.973A327.547,327.547,0,0,1,862.685,591.57ZM353.87,478.969a61.26,61.26,0,1,0,23.56,117.9l12.411-6.9A61.192,61.192,0,0,0,353.87,478.969Zm368-1.24a61.2,61.2,0,0,0-25.212,5.539l-10.561,6.15A61.357,61.357,0,1,0,721.872,477.729Z" transform="translate(-183.688 -390.688)"/>
</svg>
